<svg xmlns="http://www.w3.org/2000/svg" viewBox="0 0 155.65 71.52"><defs><style>.cls-1{fill:#fff;}.cls-2{fill:#ed0000;}.cls-3{fill:#e0940b;}.cls-4{fill:#06d5ea;}.cls-5{fill:#11f431;}</style></defs><title>logo</title><g id="Layer_2" data-name="Layer 2"><g id="Layer_1-2" data-name="Layer 1"><path class="cls-1" d="M61.56,71.52A15.22,15.22,0,0,0,60,67.86a16.55,16.55,0,0,0,5.31-.8,3.44,3.44,0,0,0,2.51-3.27V3.67H9.09V38.91a52.36,52.36,0,0,1-6.86,29A10,10,0,0,1,0,65.46,44.12,44.12,0,0,0,5.74,41.62V.48H71V64q-.16,4.3-2.83,5.66A21.33,21.33,0,0,1,61.56,71.52ZM40.51,8.77v8.77H55.18v3H40.51V29.5H57.73v3.35H40.51v7.5h-3v-7.5H19.62V29.5H37.48V20.57H21.05v-3H37.48V8Zm-3,36h17.7V64.27H21.05V44.81Zm14.35,3H24.24v13.4H51.83Z"/><path class="cls-2" d="M84,69.45a10.3,10.3,0,0,0-3-2.07,87.08,87.08,0,0,0,7-15.07l3.19,1.43A81.85,81.85,0,0,1,84,69.45Z"/><path class="cls-1" d="M117.69,3h-14V12.6h11.48V29.5H103.66V40.35H119v3.19H82.29V0h35.4ZM100.63,40.35V29.5H91.06V12.6h9.57V3H85.48V40.35Zm11.32-14V15.63H94.25V26.31Z"/><path class="cls-3" d="M109.08,69.93l-3.35.48a103.06,103.06,0,0,0-2.07-15.55l3.51-.64Q108.69,63.55,109.08,69.93Z"/><path class="cls-4" d="M128.38,69l-3.51,1a113.21,113.21,0,0,0-2.07-15.71l3.35-1.11A81.74,81.74,0,0,1,128.38,69Z"/><path class="cls-1" d="M155.65,35.88q-3.51,9.33-12.92,10H131.89a7.7,7.7,0,0,1-5-1.84,6.91,6.91,0,0,1-2.31-5.5V0H151V22.8H127.74V39.07q.24,3.43,3.83,3.67h11.48q6.3-.56,9.73-8.13A8.76,8.76,0,0,0,155.65,35.88ZM127.74,19.46H148V3H127.74Z"/><path class="cls-5" d="M153.57,67.38l-3,1.27Q146.23,62.2,141,54.86l3.19-1.28Q149.9,61.32,153.57,67.38Z"/></g></g></svg>