<svg xmlns="http://www.w3.org/2000/svg" viewBox="0 0 517 417.03"><title>slogan</title><defs><style>.character{fill:#fff;stroke:#fff;stroke-miterlimit:10;stroke-width:0;}</style></defs><g id="Layer_2" data-name="Layer 2"><g id="Layer_1-2" data-name="Layer 1"><path class="character character01" d="M72.65,417H50.72a5.31,5.31,0,0,1-3.81-1.4,5.09,5.09,0,0,1-1.48-3.89V192.44H0v-8.71H118.39v8.71H72.65ZM4,162.42a66.31,66.31,0,0,0,17.66-8,60.55,60.55,0,0,0,12.91-11.13,44.68,44.68,0,0,0,7.86-12.75,35.5,35.5,0,0,0,2.65-13.07v-4.67H9.64v-8.71h99.11v8.71H73V117q0,14,10.35,25.51T114,160.55l-4.52,8.56A85.55,85.55,0,0,1,81,157.67a69.16,69.16,0,0,1-21.55-20.92,73.66,73.66,0,0,1-21.55,21.78A86.51,86.51,0,0,1,8.71,171Z"/><path class="character character02" d="M207.44,241h-86v-8.71h86ZM122,149.05v-8.71H150.5v-4.55q0-3.61-1.47-4.95a5.71,5.71,0,0,0-4-1.34h-3.42v-5.8h34.85v16.64h23.64v8.71Zm3.89,36.8a31.9,31.9,0,0,1,2.41-12.42,28,28,0,0,1,7-9.93A32.1,32.1,0,0,1,146.62,157a45.71,45.71,0,0,1,15.09-2.32A45,45,0,0,1,176.8,157a30.08,30.08,0,0,1,10.89,6.52,27.86,27.86,0,0,1,6.61,9.93,33.76,33.76,0,0,1,2.25,12.42,34.48,34.48,0,0,1-2.25,12.41,29.73,29.73,0,0,1-6.61,10.33,32,32,0,0,1-10.89,7.06,40.29,40.29,0,0,1-15.09,2.63,41,41,0,0,1-15.09-2.63,34.06,34.06,0,0,1-11.28-7.06,29.78,29.78,0,0,1-7-10.33A32.58,32.58,0,0,1,125.92,185.85Zm35.71-22.48q-5.64,0-8.85,5.52t-3.21,16.88q0,11.21,3.21,17.35t8.85,6.14q5.48,0,8.53-6.14t3.06-17.35q0-11.36-3.06-16.88T161.63,163.37Zm74.13,99.41H217.09q-5.44,0-5.44-5.29V11.05q-.17-3.12-1.56-4.2a6.44,6.44,0,0,0-4-1.09h-3.12V0h32.83Z"/><path class="character  character03" d="M260,215.57v-2.93h37.16v2.93ZM294,219v9.57H272.07v4h22.46v3H265.82a1.71,1.71,0,0,1-1.56-.61,2.76,2.76,0,0,1-.39-1.53v-3.89a2.25,2.25,0,0,0-.44-1.57,1.88,1.88,0,0,0-1.42-.47h-.88v-1.65h24.61v-4H263.09V219Zm.34-9.57H266a2,2,0,0,1-1.76-.76,3,3,0,0,1-.54-1.78v-3.37a2.7,2.7,0,0,0-.32-1.61,1.54,1.54,0,0,0-1.24-.39h-.93v-1.86h24.41V195.8H263.23V193h29.1q1.56,0,1.56,1.8v7.76h-22v4h22.41Z"/><path class="character character04" d="M348,151.79H337.4a2.56,2.56,0,0,1-1.84-.68,2.45,2.45,0,0,1-.71-1.88V131H312.91v-4.2h77.17V131H348Zm-33.13-35.32a32.35,32.35,0,0,0,8.53-3.86,29.1,29.1,0,0,0,6.23-5.38,21.52,21.52,0,0,0,3.8-6.16,17.13,17.13,0,0,0,1.28-6.31V92.51H317.56V88.3h47.87v4.21H348.14v2a18,18,0,0,0,5,12.33q5,5.55,14.84,8.71l-2.18,4.13A41.42,41.42,0,0,1,352,114.18a33.46,33.46,0,0,1-10.4-10.1,35.69,35.69,0,0,1-10.41,10.51,41.57,41.57,0,0,1-14.09,6Z"/><path class="character character05" d="M416.67,131h-41.4v-4.21h41.4ZM376.25,96.46a22.19,22.19,0,0,1,1.16-7.29,16.92,16.92,0,0,1,3.49-5.93,16.29,16.29,0,0,1,5.75-4,22.1,22.1,0,0,1,15.85,0,15.58,15.58,0,0,1,5.68,4,17.55,17.55,0,0,1,3.42,5.93,22.46,22.46,0,0,1,1.16,7.29,23.65,23.65,0,0,1-1.09,7.25,16.51,16.51,0,0,1-3.34,6,15.58,15.58,0,0,1-5.68,4,20.33,20.33,0,0,1-8.07,1.47,19.58,19.58,0,0,1-8.19-1.58,16.13,16.13,0,0,1-5.71-4.21,17.4,17.4,0,0,1-3.35-6A22.45,22.45,0,0,1,376.25,96.46Zm18.29-14.35a5.38,5.38,0,0,0-5.36,3.61q-1.51,3.6-1.51,10.74t1.51,10.63a5.39,5.39,0,0,0,5.36,3.65,5.72,5.72,0,0,0,5.44-3.65q1.74-3.65,1.74-10.63Q401.72,82.11,394.54,82.11Zm36,60.18H421.4a2.22,2.22,0,0,1-2.48-2.55V81.51a2.85,2.85,0,0,0-.82-2,2.91,2.91,0,0,0-1.81-.53h-1.65V76.17h15.93Z"/><path class="character character06" d="M437.27,116.14V113.9h7.17v-1.79a1.55,1.55,0,0,0-.39-1.22,1.57,1.57,0,0,0-1.05-.33h-.77v-1.43h8.61v4.77h5.93v2.24Zm18.33,13.15a21.33,21.33,0,0,1-.58,5.36,10,10,0,0,1-1.67,3.65,6.42,6.42,0,0,1-2.65,2.07,9.82,9.82,0,0,1-7.08,0,6.73,6.73,0,0,1-2.71-2.07,10.09,10.09,0,0,1-1.74-3.65,23.52,23.52,0,0,1,0-10.73,10.17,10.17,0,0,1,1.74-3.65,6.73,6.73,0,0,1,2.71-2.07,9.82,9.82,0,0,1,7.08,0,6.42,6.42,0,0,1,2.65,2.07,10.12,10.12,0,0,1,1.67,3.65A21.35,21.35,0,0,1,455.6,129.29Zm-5.73,0c0-1.68,0-3.12-.06-4.33a15.36,15.36,0,0,0-.33-2.94,3.47,3.47,0,0,0-.83-1.69,2.06,2.06,0,0,0-1.52-.54,2,2,0,0,0-1.48.54,3.38,3.38,0,0,0-.82,1.69,15.36,15.36,0,0,0-.33,2.94c0,1.21-.06,2.65-.06,4.33s0,3.15.06,4.34a15.23,15.23,0,0,0,.33,2.92,3.27,3.27,0,0,0,.82,1.67,2,2,0,0,0,1.48.53,2.1,2.1,0,0,0,1.52-.53,3.35,3.35,0,0,0,.83-1.67,15.23,15.23,0,0,0,.33-2.92C449.85,132.44,449.87,131,449.87,129.29Zm19.3-2.8h-4v17.29h-4.66c-.82,0-1.23-.43-1.23-1.31v-30a1.29,1.29,0,0,0-.51-1,1.75,1.75,0,0,0-1-.28H457v-1.43h8.14v14.65h4Z"/><path class="character character07" d="M475.35,127.11a1.25,1.25,0,0,0-.35-1,1.37,1.37,0,0,0-.93-.31h-.85v-1.47h11.16V112.73H474.5v-2.25h14.84a1.1,1.1,0,0,1,.88.31,1.84,1.84,0,0,1,.25,1.09v14.65h-9v11.6h10.35v2.28H477.21a1.73,1.73,0,0,1-1.39-.54,2,2,0,0,1-.47-1.39Zm29.46-.93h-4.07v17.6h-4.62a1.23,1.23,0,0,1-.92-.34,1.3,1.3,0,0,1-.35-1v-30a1.39,1.39,0,0,0-.45-1,1.62,1.62,0,0,0-1-.28h-.73v-1.43h8.06V123.9h4.07Z"/><path class="character character08" d="M510.29,109.94h4.77c.78,0,1.28.17,1.51.51a2.12,2.12,0,0,1,.35,1.27c0,.47,0,1.23-.13,2.29s-.22,2.34-.37,3.84l-.54,5.06q-.32,2.81-.66,5.91h-3Zm.12,26.36a3.28,3.28,0,0,1,.95-2.34,3.27,3.27,0,0,1,4.69,0,3.28,3.28,0,0,1,1,2.34,3.22,3.22,0,0,1-1,2.35,3.37,3.37,0,0,1-4.69,0A3.22,3.22,0,0,1,510.41,136.3Z"/><path class="character  character09" d="M348,244.42H337.4a2.56,2.56,0,0,1-1.84-.68,2.45,2.45,0,0,1-.71-1.88V223.6H312.91v-4.2h77.17v4.2H348ZM314.86,209.1a32,32,0,0,0,8.53-3.87,29.06,29.06,0,0,0,6.23-5.37,21.66,21.66,0,0,0,3.8-6.16,17.13,17.13,0,0,0,1.28-6.31v-2.26H317.56v-4.2h47.87v4.2H348.14v2a18,18,0,0,0,5,12.32q5,5.57,14.84,8.72l-2.18,4.13A41.42,41.42,0,0,1,352,206.81a33.46,33.46,0,0,1-10.4-10.1,35.69,35.69,0,0,1-10.41,10.51,41.55,41.55,0,0,1-14.09,6Z"/><path class="character  character10" d="M378.05,193.29a2.46,2.46,0,0,0-.75-2.07,3.47,3.47,0,0,0-2.1-.56h-1.35V188h48c1.6,0,2.4.88,2.4,2.63v21.56H407.2v7.21h22v4.21H372v-4.21h22.09v-7.21H381.58a3.1,3.1,0,0,1-2.7-1.13,4.44,4.44,0,0,1-.83-2.7Zm46.36,59.43h-9.69c-1.25,0-2.07-.25-2.44-.75a3.42,3.42,0,0,1-.57-2.11V235.14H376.55v-4.21h47.86ZM390,192.39v15.4h22.24v-15.4Z"/><path class="character character11" d="M437.27,208.33v-2.25h7.17V204.3a1.29,1.29,0,0,0-1.44-1.55h-.77v-1.44h8.6v4.77h5.94v2.25Zm18.33,13.14a21.46,21.46,0,0,1-.58,5.37,10.07,10.07,0,0,1-1.67,3.64,6.37,6.37,0,0,1-2.65,2.08,9.82,9.82,0,0,1-7.08,0,6.67,6.67,0,0,1-2.71-2.08,10.12,10.12,0,0,1-1.74-3.64,23.57,23.57,0,0,1,0-10.74,10,10,0,0,1,1.74-3.64,6.67,6.67,0,0,1,2.71-2.08,9.82,9.82,0,0,1,7.08,0,6.37,6.37,0,0,1,2.65,2.08A10,10,0,0,1,455,216.1,21.46,21.46,0,0,1,455.6,221.47Zm-5.73,0q0-2.52-.06-4.32a15.38,15.38,0,0,0-.33-3,3.57,3.57,0,0,0-.83-1.69,2.06,2.06,0,0,0-1.52-.54,2,2,0,0,0-1.48.54,3.47,3.47,0,0,0-.82,1.69,15.38,15.38,0,0,0-.33,3q-.06,1.8-.06,4.32c0,1.7,0,3.15.06,4.34a15.34,15.34,0,0,0,.33,2.93,3.23,3.23,0,0,0,.82,1.66,2,2,0,0,0,1.48.53,2.1,2.1,0,0,0,1.52-.53,3.31,3.31,0,0,0,.83-1.66,15.34,15.34,0,0,0,.33-2.93C449.85,224.62,449.87,223.17,449.87,221.47Zm19.3-2.79h-4V236h-4.66q-1.23,0-1.23-1.32v-30a1.3,1.3,0,0,0-.51-1.05,1.75,1.75,0,0,0-1-.27H457v-1.44h8.14v14.66h4Z"/><path class="character character12" d="M475.35,219.29a1.25,1.25,0,0,0-.35-1,1.37,1.37,0,0,0-.93-.3h-.85v-1.47h11.16V204.92H474.5v-2.25h14.84a1.07,1.07,0,0,1,.88.31,1.8,1.8,0,0,1,.25,1.08v14.66h-9v11.59h10.35v2.28H477.21a1.7,1.7,0,0,1-1.39-.54,2,2,0,0,1-.47-1.39Zm29.46-.92h-4.07V236h-4.62a1.24,1.24,0,0,1-.92-.35,1.28,1.28,0,0,1-.35-1v-30a1.4,1.4,0,0,0-.45-1.05,1.62,1.62,0,0,0-1-.27h-.73v-1.44h8.06v14.23h4.07Z"/><path class="character character13" d="M510.29,202.12h4.77c.78,0,1.28.17,1.51.51a2.13,2.13,0,0,1,.35,1.28c0,.46,0,1.23-.13,2.28s-.22,2.34-.37,3.84l-.54,5.06-.66,5.91h-3Zm.12,26.37a3.29,3.29,0,0,1,.95-2.35,3.27,3.27,0,0,1,4.69,0,3.29,3.29,0,0,1,1,2.35,3.3,3.3,0,1,1-6.59,0Z"/></g></g></svg>